<?xml version="1.0" standalone="no"?>
<!DOCTYPE svg PUBLIC "-//W3C//DTD SVG 20010904//EN"
 "http://www.w3.org/TR/2001/REC-SVG-20010904/DTD/svg10.dtd">
<svg version="1.0" xmlns="http://www.w3.org/2000/svg"
 width="560.000000pt" height="560.000000pt" viewBox="0 0 560.000000 560.000000"
 preserveAspectRatio="xMidYMid meet">
<metadata>
Created by potrace 1.11, written by Peter Selinger 2001-2013
</metadata>
<g transform="translate(0.000000,560.000000) scale(0.100000,-0.100000)"
fill="#000000" stroke="none">
<path d="M3096 5234 c-91 -39 -190 -61 -378 -84 -407 -49 -499 -75 -673 -193
-235 -159 -349 -346 -401 -662 -24 -139 -27 -567 -6 -627 8 -21 17 -38 20 -38
4 0 6 -152 4 -337 -2 -199 1 -382 8 -445 19 -186 79 -360 176 -505 138 -207
299 -330 534 -407 176 -57 257 -70 430 -70 140 -1 168 3 295 32 232 54 377
134 525 288 171 178 271 395 300 653 6 51 10 267 10 480 -1 229 4 435 11 506
22 226 0 524 -52 700 -48 162 -149 292 -332 429 -43 32 -81 64 -84 72 -3 8 2
32 11 54 9 22 16 54 16 70 0 37 -21 39 -95 11 -100 -37 -96 -38 -89 7 4 25 2
42 -5 47 -7 4 -45 -9 -86 -29 -41 -19 -75 -33 -75 -31 0 2 7 20 16 39 18 36
14 66 -8 66 -7 -1 -40 -12 -72 -26z m282 -602 c56 -65 122 -129 190 -183 175
-138 236 -270 272 -584 13 -117 36 -214 55 -235 11 -13 11 -24 -2 -70 -9 -36
-18 -139 -23 -295 -13 -349 -39 -466 -128 -583 -33 -43 -170 -127 -233 -142
-82 -20 -91 -13 -139 100 -23 55 -51 111 -61 124 -26 33 -144 92 -214 106 -71
15 -226 6 -267 -15 -24 -11 -32 -11 -55 0 -42 21 -197 30 -268 15 -70 -14
-188 -73 -214 -106 -10 -13 -38 -69 -61 -124 -48 -113 -57 -120 -139 -100 -63
15 -200 99 -233 142 -89 117 -115 234 -128 583 -6 163 -13 259 -24 298 -14 51
-14 64 -2 105 8 26 22 96 31 157 41 267 138 491 267 611 23 22 75 77 115 121
l72 81 273 -5 c272 -6 742 10 808 27 49 12 81 4 108 -28z m-545 -1914 c12 -6
86 -14 164 -18 130 -6 145 -8 181 -33 28 -18 49 -45 71 -88 62 -125 32 -251
-90 -363 -92 -85 -149 -93 -223 -29 -85 71 -189 70 -275 -4 -75 -64 -148 -47
-245 57 -115 123 -127 262 -35 391 36 51 71 62 225 69 77 4 149 12 160 18 25
15 40 15 67 0z"/>
<path d="M2211 3825 c-91 -21 -199 -75 -248 -125 -44 -43 -52 -67 -31 -88 20
-20 43 -14 79 24 84 88 269 139 413 113 53 -9 70 -8 82 2 22 18 13 52 -19 67
-42 20 -200 24 -276 7z"/>
<path d="M3151 3829 c-50 -10 -71 -24 -71 -49 0 -35 24 -43 96 -31 144 26 329
-25 413 -113 36 -38 59 -44 79 -24 21 21 13 45 -30 88 -103 104 -322 162 -487
129z"/>
<path d="M2218 3464 c-77 -41 -75 -169 2 -209 84 -43 180 13 180 105 0 92 -99
149 -182 104z"/>
<path d="M3258 3464 c-77 -41 -75 -169 2 -209 60 -31 137 -10 165 45 57 110
-58 223 -167 164z"/>
<path d="M2429 2639 c-8 -16 -8 -33 1 -66 28 -113 110 -211 218 -261 49 -23
70 -27 152 -27 82 0 103 4 152 27 112 52 204 168 223 279 12 70 -41 98 -64 34
-22 -61 -41 -65 -301 -65 -260 0 -279 4 -301 65 -11 29 -18 35 -41 35 -18 0
-31 -7 -39 -21z"/>
<path d="M2104 1631 c-17 -4 -36 -11 -41 -14 -6 -4 -48 -14 -94 -23 -282 -53
-532 -187 -744 -399 -124 -123 -179 -197 -253 -335 -122 -229 -172 -438 -172
-715 l0 -145 2000 0 2000 0 0 149 c0 417 -137 756 -420 1041 -215 217 -419
328 -745 405 -183 43 -205 48 -210 43 -3 -2 0 -40 7 -84 6 -43 8 -91 5 -106
-10 -36 -92 -117 -165 -162 -308 -187 -806 -147 -1029 83 -24 25 -54 64 -65
85 -20 39 -20 50 -2 154 6 29 4 32 -17 31 -13 -1 -38 -4 -55 -8z m1949 -1003
c36 -18 139 -100 133 -105 -5 -5 -356 -41 -356 -36 0 19 33 57 82 93 87 64
102 69 141 48z"/>
</g>
</svg>
