<?xml version="1.0" standalone="no"?>
<!DOCTYPE svg PUBLIC "-//W3C//DTD SVG 20010904//EN"
 "http://www.w3.org/TR/2001/REC-SVG-20010904/DTD/svg10.dtd">
<svg version="1.0" xmlns="http://www.w3.org/2000/svg"
 width="300.000000pt" height="300.000000pt" viewBox="0 0 300.000000 300.000000"
 preserveAspectRatio="xMidYMid meet">
<metadata>
Created by potrace 1.14, written by Peter Selinger 2001-2017
</metadata>
<g transform="translate(0.000000,300.000000) scale(0.100000,-0.100000)"
fill="#000000" stroke="none">
<path d="M1776 2885 c-34 -45 -52 -53 -112 -56 -32 -1 -62 -10 -87 -26 -28
-18 -42 -21 -51 -13 -10 7 -17 6 -25 -4 -14 -17 -61 -27 -61 -13 0 7 -4 7 -12
-1 -9 -9 -14 -7 -23 5 -11 14 -14 12 -31 -15 -10 -18 -22 -32 -26 -32 -12 0
-64 -52 -71 -70 -4 -10 -6 -11 -6 -2 -1 7 4 23 10 34 14 26 -7 43 -28 23 -10
-10 -10 -20 -3 -40 12 -33 12 -35 0 -35 -5 0 -10 11 -10 24 0 13 -6 26 -12 29
-10 3 -10 7 -2 18 15 19 25 49 16 49 -4 0 -24 -16 -44 -35 -22 -21 -38 -30
-40 -23 -3 7 -21 -12 -42 -42 -22 -32 -35 -45 -30 -30 6 22 5 23 -10 11 -9 -8
-15 -16 -12 -18 5 -5 -54 -63 -64 -63 -3 0 -14 -25 -24 -55 -13 -42 -14 -60
-6 -77 11 -22 11 -22 -5 -3 -15 18 -15 18 -9 -13 4 -22 3 -32 -5 -32 -7 0 -9
-4 -6 -10 3 -5 1 -10 -4 -10 -15 0 -14 87 1 92 8 3 6 7 -5 11 -9 3 -16 3 -16
-1 1 -4 -2 -21 -6 -38 -5 -25 -11 -30 -26 -27 -13 4 -19 0 -19 -11 0 -9 -18
-34 -41 -56 -23 -21 -38 -44 -34 -49 3 -6 1 -11 -5 -11 -7 0 -10 -7 -6 -15 3
-9 0 -15 -9 -15 -20 0 -19 -9 2 -34 17 -20 17 -20 -1 -6 -21 16 -21 16 1 -37
3 -7 1 -13 -4 -13 -10 0 -14 -30 -4 -30 3 0 13 -5 21 -10 13 -8 10 -14 -15
-35 -24 -21 -26 -24 -6 -15 19 10 22 9 16 -1 -6 -9 -3 -11 8 -6 27 10 19 0
-16 -20 -29 -18 -32 -24 -29 -59 2 -21 5 -95 6 -164 3 -122 16 -203 36 -215
20 -12 -2 -26 -31 -20 -24 5 -29 3 -33 -17 -6 -27 -6 -103 0 -135 5 -26 24
-32 24 -8 0 8 5 15 11 15 7 0 8 -11 4 -30 -5 -23 -1 -37 21 -65 32 -43 43 -34
44 35 1 25 9 86 19 135 l17 90 18 -40 c19 -43 79 -242 95 -317 12 -51 6 -82
-14 -74 -8 3 -12 -7 -12 -27 0 -85 -4 -118 -13 -112 -6 4 -10 -6 -10 -22 0
-19 -3 -24 -9 -15 -6 10 -10 4 -15 -20 -9 -43 -20 -25 -37 59 -7 35 -16 63
-19 63 -4 0 -8 21 -9 47 -1 50 -11 75 -11 29 0 -18 -7 -29 -22 -36 l-23 -9 23
0 c16 -1 22 -7 23 -23 1 -32 6 -69 12 -96 10 -39 -24 -62 -88 -62 -37 0 -70
-7 -96 -21 -38 -19 -44 -19 -71 -6 -23 11 -39 12 -62 5 -41 -12 -136 -26 -136
-20 0 21 26 72 37 72 7 0 28 8 47 17 33 15 40 15 105 0 38 -9 81 -17 95 -17
38 0 33 27 -9 44 -49 21 -44 36 13 37 26 1 60 4 76 8 29 6 29 6 -20 29 -46 22
-60 23 -193 20 -137 -3 -144 -4 -162 -27 -20 -24 -20 -24 3 -48 20 -22 21 -25
6 -40 -24 -23 -136 -24 -149 -1 -15 27 -85 42 -121 27 -34 -14 -33 -24 7 -115
23 -51 27 -56 50 -50 76 19 110 18 129 -3 13 -15 31 -21 58 -21 27 0 38 -4 36
-12 -8 -25 -63 -43 -130 -43 -39 0 -68 -4 -68 -10 1 -15 26 -45 39 -45 6 0 11
-11 11 -24 0 -32 11 -38 46 -26 16 5 45 11 64 13 19 3 47 10 62 17 23 11 26
16 16 28 -10 11 -8 17 7 29 11 8 31 17 45 19 15 3 30 15 35 27 6 11 23 24 39
29 24 6 33 3 50 -16 32 -34 153 -81 205 -79 24 1 47 7 51 13 10 16 29 -40 35
-100 5 -60 68 -300 89 -345 10 -19 16 -43 15 -53 -1 -9 1 -28 4 -42 4 -14 8
-37 10 -52 2 -15 6 -30 10 -34 4 -4 2 -13 -3 -19 -16 -19 10 -34 97 -55 290
-68 571 -60 838 26 83 27 255 103 255 113 0 4 -27 17 -60 30 -33 13 -123 62
-200 107 -77 46 -145 83 -151 81 -6 -1 -14 4 -17 12 -3 9 0 11 8 6 9 -5 11 -4
6 3 -10 16 46 122 84 157 17 17 38 44 46 61 8 17 24 41 34 52 11 12 20 26 20
32 0 6 4 18 9 28 39 74 63 160 66 242 2 63 13 103 25 95 4 -3 6 4 3 15 -3 10
1 26 9 34 8 8 21 43 27 78 7 35 24 84 37 110 14 26 33 73 44 105 18 55 18 62
4 122 -16 64 -16 70 12 196 9 41 16 112 17 160 1 28 3 42 5 33 2 -10 7 -18 12
-18 13 0 18 36 10 79 -4 23 -6 41 -4 41 2 0 -8 21 -21 47 -14 25 -23 49 -20
52 7 7 53 -47 65 -76 12 -29 46 -30 60 -3 13 24 -2 83 -29 114 -9 10 -17 28
-17 40 -3 42 -4 46 -16 46 -7 0 -30 16 -52 35 -21 19 -44 35 -51 35 -7 0 -19
8 -26 18 -13 16 -12 16 6 3 11 -7 2 3 -20 23 l-40 36 53 0 c62 0 57 12 -17 45
-24 10 -39 21 -33 23 6 2 23 -4 39 -14 l28 -16 -27 25 c-15 14 -24 28 -21 31
4 3 -1 6 -11 6 -9 0 -14 5 -11 10 3 6 15 10 26 10 23 0 25 13 4 34 -8 8 -15
19 -15 23 0 5 -19 10 -42 10 -61 2 -61 1 -54 18 4 12 -5 15 -48 15 -35 0 -58
5 -66 15 -7 8 -9 15 -4 16 22 1 -35 18 -65 18 -32 1 -33 2 -18 19 23 25 9 37
-16 15 -25 -22 -14 0 15 33 11 12 21 37 24 55 2 19 5 43 6 54 2 11 0 20 -3 20
-4 0 -16 8 -27 18 -19 17 -20 16 -46 -18z m-276 -138 c0 -6 -33 -40 -65 -67
-22 -18 -25 -19 -12 -4 9 11 17 26 17 32 0 7 6 12 14 12 7 0 19 7 26 15 12 14
20 19 20 12z m100 -21 c0 -2 -7 -7 -16 -10 -8 -3 -12 -2 -9 4 6 10 25 14 25 6z
m-269 -43 c-12 -20 -14 -14 -5 12 4 9 9 14 11 11 3 -2 0 -13 -6 -23z m329 18
c0 -5 -7 -12 -16 -15 -14 -5 -15 -4 -4 9 14 17 20 19 20 6z m-60 -46 c-7 -8
-17 -15 -23 -15 -6 0 -2 7 9 15 25 19 30 19 14 0z m-217 -26 c-10 -17 -24 -36
-32 -42 -12 -10 -13 -9 -6 3 14 24 48 70 52 70 2 0 -4 -14 -14 -31z m127 28
c0 -2 -12 -14 -27 -28 l-28 -24 24 28 c23 25 31 32 31 24z m-285 -78 c-5 -44
-10 -58 -16 -47 -8 15 -7 45 5 93 2 11 5 22 5 24 1 2 4 2 7 -2 3 -3 3 -34 -1
-68z m653 65 c-4 -4 -18 -8 -32 -9 -13 -2 -34 -6 -46 -10 -20 -6 -21 -5 -10 7
8 8 32 15 54 17 22 1 37 -1 34 -5z m-278 -18 c0 -7 -82 -57 -86 -53 -3 2 14
16 38 30 46 28 48 29 48 23z m80 -21 c0 -2 -10 -9 -22 -15 -22 -11 -22 -10 -4
4 21 17 26 19 26 11z m-501 -68 c0 -27 -2 -29 -9 -12 -12 28 -12 57 0 50 6 -3
10 -21 9 -38z m440 29 c-2 -2 -15 -9 -29 -16 -23 -12 -24 -12 -11 3 7 10 20
17 29 17 8 0 13 -2 11 -4z m-532 -53 c-3 -10 -5 -2 -5 17 0 19 2 27 5 18 2
-10 2 -26 0 -35z m603 -38 c-33 -19 -49 -19 -24 0 10 8 26 14 34 14 9 0 4 -6
-10 -14z m-592 -20 c-3 -3 -9 2 -12 12 -6 14 -5 15 5 6 7 -7 10 -15 7 -18z
m649 -27 c0 -8 -15 -14 -36 -14 l-36 -2 35 13 c19 8 35 14 36 14 0 1 1 -5 1
-11z m100 6 c-3 -3 -12 -4 -19 -1 -8 3 -5 6 6 6 11 1 17 -2 13 -5z m270 0 c-3
-3 -12 -4 -19 -1 -8 3 -5 6 6 6 11 1 17 -2 13 -5z m-310 -10 c-3 -3 -12 -4
-19 -1 -8 3 -5 6 6 6 11 1 17 -2 13 -5z m-12 -54 c-11 -5 -31 -8 -45 -8 -23 0
-22 1 5 8 42 11 65 11 40 0z m-407 -46 c60 -1 200 -30 218 -45 10 -8 25 -13
34 -11 10 2 20 -4 24 -13 4 -13 2 -14 -14 -5 -22 12 -29 -3 -7 -17 6 -4 18
-19 25 -32 13 -22 12 -23 -5 -17 -16 7 -17 6 -2 -9 9 -9 22 -18 30 -19 28 -6
49 -18 49 -30 0 -6 14 -26 31 -43 16 -18 27 -33 24 -33 -4 0 1 -7 9 -16 22
-21 20 -27 -10 -45 -21 -13 -23 -17 -10 -22 9 -4 16 -2 16 2 0 5 16 4 35 -2
32 -10 43 -23 83 -110 2 -4 -3 -4 -12 -1 -9 4 -28 -4 -45 -19 -30 -25 -80 -30
-122 -13 -9 4 -21 0 -29 -9 -12 -14 -15 -14 -30 0 -15 14 -20 14 -46 0 -27
-14 -29 -13 -33 3 -5 27 -21 41 -38 35 -11 -4 -14 -2 -9 5 5 8 -1 12 -18 12
-14 0 -28 -5 -32 -11 -4 -8 -9 -7 -15 2 -5 8 -9 10 -9 4 0 -5 -20 -11 -45 -12
-25 -1 -55 -9 -66 -17 -12 -8 -29 -12 -38 -9 -14 4 -14 3 -1 -6 11 -9 4 -9
-30 -4 -85 15 -234 6 -276 -15 -74 -38 -118 -112 -115 -194 1 -27 -2 -48 -7
-48 -13 0 -32 79 -21 86 5 3 9 12 9 20 0 8 -4 13 -9 9 -11 -6 18 57 29 65 4 3
13 16 19 28 7 13 22 35 34 48 47 54 72 169 50 224 -6 14 -8 30 -4 35 4 6 22
29 40 53 l33 43 -26 -7 c-32 -8 -32 -4 -3 47 14 25 31 41 47 45 14 2 38 11 53
19 16 8 40 15 53 15 14 0 27 7 30 15 5 12 9 13 21 4 10 -9 19 -9 37 1 13 7 30
9 37 5 8 -5 10 -4 5 3 -4 7 -4 18 1 25 6 9 8 8 11 -3 2 -11 15 -16 40 -16z
m857 -44 c3 -5 2 -10 -4 -10 -5 0 -13 5 -16 10 -3 6 -2 10 4 10 5 0 13 -4 16
-10z m-454 -107 c13 -16 12 -17 -3 -4 -17 13 -22 21 -14 21 2 0 10 -8 17 -17z
m-390 -372 c-12 -8 -51 -4 -51 5 0 2 15 4 33 4 22 0 28 -3 18 -9z m557 -44 c3
-13 -3 -16 -22 -15 -14 1 -26 6 -26 10 0 4 -7 8 -15 8 -8 0 -12 6 -9 14 7 19
68 5 72 -17z m-355 16 c-7 -2 -19 -2 -25 0 -7 3 -2 5 12 5 14 0 19 -2 13 -5z
m70 -10 c-7 -2 -19 -2 -25 0 -7 3 -2 5 12 5 14 0 19 -2 13 -5z m54 -9 c-3 -3
-12 -4 -19 -1 -8 3 -5 6 6 6 11 1 17 -2 13 -5z m228 -29 c6 -2 -18 -4 -52 -4
-35 -1 -63 3 -63 8 0 7 90 4 115 -4z m52 -11 c-3 -3 -12 -4 -19 -1 -8 3 -5 6
6 6 11 1 17 -2 13 -5z m-247 -8 c0 -2 -7 -7 -16 -10 -8 -3 -12 -2 -9 4 6 10
25 14 25 6z m-175 -26 c-28 -12 -37 -12 -30 0 3 6 16 10 28 9 21 0 21 -1 2 -9z
m45 -141 c10 -19 10 -20 -9 -10 -11 6 -26 11 -33 11 -7 -1 -1 -7 13 -15 26
-14 54 -67 42 -79 -3 -3 0 -12 6 -20 7 -8 11 -37 10 -65 -2 -28 3 -56 10 -64
7 -9 8 -18 3 -21 -15 -9 -153 -27 -162 -21 -5 3 -32 -4 -60 -15 -28 -11 -57
-20 -65 -20 -28 0 -15 33 30 81 25 27 45 58 45 70 0 27 53 112 86 138 13 10
21 21 18 24 -11 11 7 27 31 27 14 0 29 -9 35 -21z m-207 -116 c-38 -60 -147
-146 -208 -164 -25 -7 -45 -16 -45 -20 0 -4 -11 -6 -23 -6 -13 0 -39 -7 -58
-16 -79 -36 -75 -38 -108 70 -17 54 -33 112 -36 128 l-7 30 22 -33 c37 -54
102 -86 183 -88 42 -1 64 2 55 7 -7 5 6 6 34 3 39 -6 54 -2 90 19 24 14 59 41
77 61 42 43 47 45 24 9z m313 -168 c9 -14 15 -28 12 -30 -8 -8 -48 26 -48 41
0 22 18 17 36 -11z m-377 -112 c7 -13 4 -22 -12 -35 -40 -35 -75 -6 -38 31 25
25 37 26 50 4z m416 -743 c-3 -5 0 -7 8 -4 16 6 47 -20 47 -39 0 -16 -19 -45
-21 -32 -1 6 -1 21 0 35 l1 25 -12 -25 c-6 -14 -12 -27 -13 -30 -23 -55 -31
-70 -41 -66 -8 3 -10 -3 -6 -16 4 -15 2 -19 -7 -13 -10 5 -11 2 -6 -14 4 -15
-1 -28 -19 -46 -27 -26 -46 -32 -46 -14 0 6 -9 9 -20 6 -11 -3 -20 -2 -20 3 0
9 37 23 61 23 12 0 16 8 15 28 -1 16 3 29 8 29 6 0 2 7 -8 15 -11 9 -14 15 -7
15 8 0 10 7 6 21 -6 18 -5 19 13 10 26 -14 29 -14 35 3 4 10 1 13 -8 10 -9 -4
-13 1 -12 14 0 12 6 18 14 15 12 -5 17 10 16 45 -1 6 6 12 14 12 8 0 11 -4 8
-10z m-85 -264 c0 -3 -4 -8 -10 -11 -5 -3 -10 -1 -10 4 0 6 5 11 10 11 6 0 10
-2 10 -4z"/>
<path d="M823 1240 c0 -25 2 -35 4 -22 2 12 2 32 0 45 -2 12 -4 2 -4 -23z"/>
<path d="M2917 1233 c-4 -3 -18 -8 -32 -9 -14 -1 -38 -12 -54 -23 -16 -12 -36
-21 -44 -21 -9 0 -18 -4 -21 -9 -4 -6 -20 -5 -42 0 -29 9 -41 7 -68 -9 -35
-21 -70 -30 -123 -34 -18 -1 -33 -5 -33 -8 0 -3 -38 -6 -84 -7 -70 -2 -93 -6
-137 -30 -30 -15 -56 -29 -58 -31 -10 -6 -29 -177 -21 -186 15 -15 96 -19 121
-5 18 9 93 14 279 16 188 2 257 6 266 15 24 27 104 284 104 336 0 12 -42 17
-53 5z"/>
<path d="M155 1089 c-12 -19 5 -24 68 -21 68 4 72 6 62 21 -3 6 -33 11 -65 11
-32 0 -62 -5 -65 -11z"/>
<path d="M905 1047 c-4 -10 -5 -21 -1 -24 10 -10 18 4 13 24 -4 17 -4 17 -12
0z"/>
<path d="M490 694 c0 -8 13 -17 30 -21 17 -3 33 -10 36 -14 9 -16 54 -10 54 6
0 17 -26 29 -82 38 -29 4 -38 2 -38 -9z"/>
<path d="M608 639 c-26 -15 -22 -26 14 -33 30 -6 68 14 68 36 0 11 -61 10 -82
-3z"/>
<path d="M463 587 c-52 -15 -86 -43 -38 -33 32 7 37 8 75 4 14 -1 45 1 68 5
37 6 42 10 32 22 -15 18 -76 18 -137 2z"/>
<path d="M620 406 c0 -9 -8 -29 -17 -43 -10 -15 -13 -24 -7 -20 10 6 54 -26
54 -40 0 -3 -8 1 -18 10 -21 19 -32 22 -32 7 0 -6 13 -18 30 -29 16 -10 27
-21 23 -24 -3 -4 7 -5 24 -3 25 2 30 0 26 -15 -6 -22 22 -27 30 -6 3 7 6 6 6
-5 1 -9 5 -19 10 -22 4 -3 8 4 7 17 -1 18 4 21 23 19 15 -2 21 0 16 7 -3 6
-10 9 -15 6 -4 -3 -11 1 -13 7 -4 10 -6 10 -6 1 -1 -7 -5 -13 -9 -13 -5 0 -9
6 -10 13 -3 35 -11 50 -35 66 -15 10 -24 22 -20 26 5 5 1 4 -8 -3 -18 -13 -30
-7 -23 12 3 7 -4 21 -16 31 -18 16 -20 17 -20 1z m110 -92 c0 -8 -19 -13 -24
-6 -3 5 1 9 9 9 8 0 15 -2 15 -3z"/>
<path d="M585 390 c-3 -5 -1 -10 4 -10 6 0 11 5 11 10 0 6 -2 10 -4 10 -3 0
-8 -4 -11 -10z"/>
<path d="M760 247 c0 -3 12 -18 28 -33 27 -26 27 -26 2 -14 l-25 11 25 -21
c14 -11 34 -25 45 -31 16 -8 15 -6 -3 8 -17 14 -20 21 -11 30 10 10 9 14 -4
19 -9 3 -14 11 -10 17 4 6 0 8 -9 4 -9 -3 -21 0 -27 6 -6 6 -11 8 -11 4z"/>
<path d="M859 197 c6 -8 7 -18 3 -23 -4 -5 -3 -6 2 -2 5 4 16 2 25 -4 9 -7 5
0 -8 15 -25 27 -43 39 -22 14z"/>
<path d="M914 142 c2 -9 6 -16 10 -15 23 6 24 9 7 20 -16 10 -19 9 -17 -5z"/>
<path d="M960 126 c0 -2 7 -7 16 -10 8 -3 12 -2 9 4 -6 10 -25 14 -25 6z"/>
</g>
</svg>
