<svg height="56" width="56" xmlns="http://www.w3.org/2000/svg">
  <g fill="none" fill-rule="evenodd">
    <path
        d="M32.667 50.053c-2.56 1.35-4.446 1.95-4.66 1.952-.427.003-7.91-2.639-13.223-8.283C10.718 39.4 10 34.056 10 30.052V17.036a2 2 0 012-2h32a2 2 0 012 2v13.016c0 2.987-.325 6.479-2.208 10.02M16 15c0-6.616 5.384-12 12-12s12 5.384 12 12"
        stroke="#2088FF" stroke-linecap="round" stroke-linejoin="round" stroke-width="2"/>
    <path
        d="M21 15c0-3.744 3.141-7 7-7 3.86 0 7 3.256 7 7m-6.993 8.487c2.14 0 4.07.896 5.436 2.333a7.474 7.474 0 012.064 5.167 7.467 7.467 0 01-1.527 4.536 7.5 7.5 0 11-5.973-12.036zM28.015 31.012v-3"
        stroke="#2088FF" stroke-linecap="round" stroke-linejoin="round" stroke-width="2"/>
    <path d="M28.013 35.012a1 1 0 100-2 1 1 0 000 2z" fill="#2088FF"/>
    <path
        d="M28.007 19.487c6.351 0 11.5 5.15 11.5 11.5 0 6.352-5.149 11.5-11.5 11.5s-11.5-5.148-11.5-11.5c0-6.35 5.149-11.5 11.5-11.5z"
        stroke="#79B8FF" stroke-linecap="round" stroke-linejoin="round" stroke-width="2"/>
    <path
        d="M37.507 38.487c4.244 4.888 7.597 8.19 7.68 8.307 1.44 2.012 1.28 4.569-.664 5.985-1.942 1.417-4.77 1.009-6.208-.976-.164-.227-2.36-3.842-5.808-9.316"
        stroke="#79B8FF" stroke-linecap="round" stroke-linejoin="round" stroke-width="2"/>
  </g>
</svg>